<svg width="32" height="32" viewBox="0 0 32 32" fill="none" xmlns="http://www.w3.org/2000/svg">
<rect width="32" height="32" rx="6" fill="white"/>
<path d="M23.8123 14.9666C23.9091 15.2296 24.0028 15.4844 24.0935 15.732C24.4411 16.7339 24.6735 17.6338 24.8416 18.3819C24.9568 18.9445 25.0404 19.4215 25.0954 19.7976C24.8834 19.8027 24.6765 19.8108 24.4676 19.8169C24.3534 19.819 24.2393 19.8281 24.1262 19.8373L23.7858 19.8628L23.6156 19.8761L23.5299 19.8822L23.4453 19.8924L23.106 19.9341L22.7666 19.9769C22.6534 19.9902 22.5423 20.0126 22.4292 20.0299L22.0919 20.086C21.9798 20.1043 21.8666 20.1217 21.7555 20.1472L21.0859 20.2888C20.8638 20.3408 20.6436 20.3999 20.4224 20.4549C20.2003 20.5069 19.9801 20.5772 19.76 20.6425C19.3126 20.7689 18.8957 20.9217 18.4676 21.0665L17.8225 21.3182C17.6085 21.3987 17.4006 21.4945 17.1906 21.5852C16.7687 21.7615 16.36 21.9695 15.9503 22.1733L15.3449 22.4994C15.2429 22.5524 15.1451 22.6126 15.0462 22.6707L14.7507 22.847C14.6528 22.9061 14.5519 22.9621 14.4561 23.0253L14.1677 23.2139L13.8793 23.4035L13.8079 23.4503L13.7366 23.5013L13.3116 23.807L13.1689 23.909C13.121 23.9426 13.0802 23.9783 13.0344 24.0119L12.8693 24.1424C12.8509 24.1159 12.8326 24.0914 12.8142 24.0649C12.7643 23.9956 12.7154 23.9253 12.6654 23.8549C12.6175 23.7816 12.5696 23.7082 12.5207 23.6338C12.4249 23.486 12.3271 23.3372 12.2292 23.1864C12.1354 23.0335 12.0458 22.8765 11.952 22.7206C11.8592 22.5636 11.7634 22.4077 11.6799 22.2426C11.5922 22.0805 11.5046 21.9165 11.4159 21.7524C11.37 21.6708 11.3303 21.5852 11.2885 21.5006C11.2477 21.416 11.2059 21.3314 11.1642 21.2458C11.1234 21.1612 11.0816 21.0756 11.0398 20.99L10.9766 20.8616L10.9196 20.7301C10.8421 20.5548 10.7657 20.3785 10.6872 20.2012C10.6097 20.034 10.5476 19.8587 10.4793 19.6855C11.1275 19.4704 11.8093 19.2401 12.5095 18.9945C12.8713 18.8701 13.2362 18.7366 13.6072 18.6031C13.7916 18.5368 13.9781 18.4696 14.1657 18.4023C14.3522 18.334 14.5397 18.2647 14.7283 18.1954C15.4804 17.9162 16.2428 17.6267 17.0031 17.3322C17.7634 17.0366 18.5196 16.7339 19.2626 16.4292C19.4491 16.3537 19.6336 16.2783 19.8181 16.2029C20.0015 16.1265 20.184 16.05 20.3654 15.9736C20.7282 15.8228 21.087 15.6729 21.4386 15.5201C22.1418 15.2194 22.8175 14.9208 23.4576 14.6334C23.5197 14.6058 23.5809 14.5773 23.642 14.5498C23.7001 14.6904 23.7572 14.8301 23.8123 14.9666ZM14.9525 27.472C15.0758 27.5658 15.2032 27.6514 15.3265 27.738C15.3897 27.7798 15.4529 27.8206 15.5151 27.8614C15.5772 27.9032 15.6394 27.9429 15.7016 27.9806C15.9503 28.1386 16.202 28.2752 16.4466 28.4036C16.572 28.4627 16.6922 28.5259 16.8155 28.5789C16.8767 28.6064 16.9368 28.6339 16.997 28.6604C17.0581 28.6849 17.1193 28.7103 17.1784 28.7338C17.209 28.747 17.2385 28.7593 17.2681 28.7705C17.2986 28.7817 17.3282 28.7929 17.3578 28.8041C17.4179 28.8255 17.477 28.8469 17.5351 28.8683C17.5952 28.8877 17.6543 28.906 17.7124 28.9254C17.7705 28.9437 17.8276 28.9631 17.8857 28.9774C17.9774 29.0039 18.0671 29.0273 18.1568 29.0487L17.8245 29.0813C17.7654 29.0864 17.7073 29.0925 17.6482 29.0966L17.4699 29.1038L17.1152 29.118C17.0561 29.119 16.9959 29.1231 16.9368 29.1231L16.7595 29.1211L16.4038 29.1139C16.3447 29.1129 16.2856 29.1139 16.2265 29.1099L16.0491 29.0966L15.6955 29.0722C15.6363 29.0671 15.5772 29.066 15.5181 29.0579L15.3418 29.0355L14.9902 28.9906C14.872 28.9794 14.7558 28.956 14.6396 28.9346L14.29 28.8714C14.1728 28.853 14.0586 28.8214 13.9435 28.7939L13.599 28.7124L13.5124 28.692L13.4268 28.6665L13.2576 28.6166L12.9161 28.5167C12.8886 28.5085 12.8601 28.5014 12.8316 28.4912L12.2465 28.2843C12.1905 28.266 12.1365 28.2415 12.0814 28.2191L11.9184 28.1508L11.5902 28.0142C11.3762 27.9164 11.1642 27.8094 10.9501 27.7095L10.7667 27.6096C10.7942 27.5709 10.8217 27.5322 10.8513 27.4934C10.9155 27.4078 10.9766 27.3192 11.0439 27.2346L11.2467 26.9808C11.3119 26.8952 11.3863 26.8157 11.4567 26.7331C11.528 26.6516 11.5953 26.567 11.6707 26.4885C11.8185 26.3295 11.9632 26.1675 12.1191 26.0146C12.1966 25.9382 12.272 25.8587 12.3505 25.7843L12.589 25.56L12.7092 25.4479L12.7347 25.4255C12.7419 25.4337 12.749 25.4418 12.7561 25.45C12.8132 25.5142 12.8693 25.5784 12.9263 25.6426L12.9753 25.6976L13.0211 25.7445C13.0507 25.7761 13.0802 25.8077 13.1108 25.8393C13.228 25.9667 13.3513 26.0859 13.4716 26.2062C13.9588 26.6791 14.451 27.1072 14.9525 27.472ZM9.05751 26.6516C9.00145 26.6088 8.95049 26.5609 8.89648 26.515C8.84246 26.4681 8.78946 26.4213 8.73544 26.3744C8.68245 26.3275 8.62741 26.2816 8.57441 26.2327C8.52244 26.1828 8.46944 26.1328 8.41746 26.0829C8.20445 25.8862 8.00061 25.6722 7.79372 25.4581C7.69486 25.346 7.59498 25.2339 7.49408 25.1208C7.44312 25.0647 7.39624 25.0046 7.34731 24.9455C7.29941 24.8864 7.25151 24.8273 7.20361 24.7681C6.82141 24.2881 6.4596 23.7724 6.1355 23.219C6.05804 23.0793 5.97957 22.9387 5.90109 22.797C5.82363 22.6543 5.75433 22.5076 5.67891 22.3629L5.62387 22.2538C5.60655 22.2171 5.59126 22.1804 5.57393 22.1437C5.54132 22.0704 5.5087 21.998 5.47609 21.9246C5.44348 21.8502 5.40984 21.7799 5.37723 21.7014C5.34563 21.6209 5.31404 21.5404 5.28244 21.4588C5.25493 21.3916 5.22945 21.3243 5.20397 21.256C5.3436 21.2204 5.50361 21.1786 5.68502 21.1307C6.03257 21.0389 6.45145 20.9228 6.93149 20.7852C7.41152 20.6476 7.95067 20.4876 8.5367 20.3072C8.79863 20.2266 9.06974 20.14 9.34899 20.0514C9.35817 20.0717 9.36734 20.0931 9.37651 20.1135C9.46009 20.3011 9.53754 20.4916 9.63029 20.6731C9.71998 20.8565 9.80865 21.0379 9.89732 21.2193L9.96356 21.3549L10.0349 21.4874C10.0828 21.5761 10.1307 21.6637 10.1776 21.7514C10.2255 21.839 10.2724 21.9256 10.3203 22.0133C10.3672 22.0999 10.413 22.1876 10.465 22.2711C10.5669 22.4393 10.6678 22.6075 10.7677 22.7736C10.8645 22.9407 10.9736 23.1008 11.0796 23.2608C11.1866 23.4198 11.2885 23.5798 11.3965 23.7347C11.5066 23.8876 11.6167 24.0384 11.7268 24.1892C11.7818 24.2636 11.8348 24.3391 11.8908 24.4124C11.9489 24.4858 12.007 24.5582 12.0651 24.6305C12.0937 24.6652 12.1212 24.6999 12.1497 24.7345L12.1028 24.7753L11.9754 24.8915L11.7196 25.1259C11.635 25.2054 11.5535 25.2879 11.4709 25.3684C11.3028 25.5285 11.1458 25.6997 10.9858 25.8678C10.9461 25.9096 10.9073 25.9524 10.8686 25.9963L10.7545 26.1277C10.679 26.2164 10.5995 26.301 10.5282 26.3937L10.308 26.6659C10.2357 26.7566 10.1684 26.8524 10.0981 26.9451C10.0166 27.0511 9.94114 27.1602 9.86674 27.2713C9.81578 27.2325 9.7638 27.1948 9.71182 27.1561C9.65781 27.1163 9.60277 27.0766 9.54774 27.0358C9.49372 26.9951 9.43664 26.9563 9.38365 26.9115C9.27561 26.8259 9.16758 26.7392 9.05751 26.6516ZM4.63322 19.2819C4.6159 19.1983 4.59653 19.1147 4.5843 19.0301C4.57003 18.9455 4.55577 18.8609 4.54252 18.7764C4.52825 18.6918 4.51194 18.6082 4.50379 18.5226C4.49258 18.437 4.48137 18.3524 4.47117 18.2668C4.45996 18.1811 4.44671 18.0955 4.44162 18.0099C4.43346 17.9233 4.42633 17.8377 4.41919 17.7521C4.41206 17.6654 4.40187 17.5788 4.39983 17.4922C4.32339 16.1102 4.47321 14.6915 4.8605 13.3421L4.93592 13.075C5.03682 13.1015 5.13874 13.1321 5.24066 13.1555L5.57291 13.231C5.684 13.2585 5.79611 13.2748 5.90822 13.2962C6.02034 13.3145 6.13143 13.339 6.24456 13.3533C6.4698 13.3849 6.69606 13.4195 6.92333 13.4389C7.03646 13.4491 7.14959 13.4623 7.26476 13.4705L7.60925 13.4919L7.64695 13.4949L7.65307 13.5632C7.66428 13.6753 7.67447 13.7864 7.68466 13.8985L7.70097 14.0647L7.72339 14.2308C7.73766 14.3419 7.75295 14.4519 7.76824 14.562C7.78454 14.6721 7.79678 14.7822 7.81614 14.8912C7.8355 15.0003 7.85487 15.1093 7.87423 15.2184C7.89462 15.3264 7.91398 15.4355 7.93335 15.5435C7.95169 15.6525 7.97819 15.7585 8.00061 15.8656C8.02405 15.9726 8.04749 16.0796 8.07094 16.1866C8.0954 16.2926 8.11578 16.4006 8.14534 16.5056C8.19935 16.7156 8.25439 16.9255 8.30841 17.1344C8.36446 17.3434 8.43173 17.5472 8.49288 17.7521C8.52447 17.855 8.55301 17.9569 8.58868 18.0588C8.62333 18.1608 8.65901 18.2627 8.69366 18.3646C8.72933 18.4665 8.76398 18.5674 8.79965 18.6683L8.85163 18.8202L8.90769 18.9639C8.93724 19.0413 8.9668 19.1178 8.99738 19.1952C8.73646 19.3165 8.48269 19.4337 8.24012 19.5489C7.6867 19.8118 7.18017 20.0575 6.73376 20.2807C6.28736 20.5028 5.90007 20.7006 5.58209 20.8677C5.418 20.9533 5.27225 21.0308 5.14587 21.0981C4.96242 20.5915 4.80649 20.0687 4.6852 19.5316C4.66788 19.449 4.65055 19.3654 4.63322 19.2819ZM22.2091 5.84493L22.0103 6.09361C21.9461 6.17718 21.8738 6.25566 21.8055 6.33719C21.7341 6.41669 21.6689 6.50026 21.5955 6.57874C21.4508 6.73468 21.3091 6.89469 21.1563 7.04553C21.0798 7.12095 21.0064 7.19942 20.929 7.27281L20.6946 7.49397L20.6059 7.57754C20.5631 7.52556 20.5193 7.47359 20.4744 7.42365C20.2135 7.11687 19.9343 6.81927 19.6407 6.52676C19.3472 6.23426 19.0384 5.9499 18.7082 5.68084C18.378 5.41177 18.0304 5.1529 17.6625 4.91339C17.3323 4.69732 16.9827 4.49655 16.6168 4.31921L16.679 4.32125L17.0275 4.32838C17.0856 4.33042 17.1437 4.3294 17.2018 4.33348L17.3761 4.34774L17.7236 4.37424C17.7817 4.37934 17.8398 4.38036 17.8979 4.38851L18.0702 4.41093L18.4167 4.45476C18.5319 4.46699 18.646 4.49043 18.7602 4.51183L19.1026 4.57502C19.2178 4.59337 19.3299 4.62496 19.443 4.65146L19.7814 4.733L19.866 4.7544L19.9495 4.77784L20.1167 4.82778L20.451 4.92562C20.4785 4.93378 20.506 4.94193 20.5335 4.9511L20.6161 4.98066L21.1084 5.15494C21.1634 5.17227 21.2164 5.19673 21.2704 5.21915L21.4304 5.28641L21.7515 5.41993C21.9441 5.5086 22.1326 5.60236 22.3232 5.69307C22.2865 5.74403 22.2488 5.79499 22.2091 5.84493ZM10.0563 18.5409L10.0053 18.3962L9.96254 18.2555C9.93299 18.1608 9.90343 18.067 9.87489 17.9722C9.84534 17.8774 9.81578 17.7826 9.78724 17.6879C9.75769 17.5931 9.73323 17.4942 9.70673 17.3964C9.68023 17.2996 9.65373 17.2017 9.62723 17.1028C9.60277 17.005 9.57118 16.9082 9.54977 16.8093C9.50391 16.6106 9.45703 16.4118 9.41015 16.2131C9.38467 16.1132 9.36836 16.0123 9.34798 15.9124C9.32861 15.8115 9.30823 15.7106 9.28886 15.6097C9.27052 15.5088 9.24708 15.4079 9.23281 15.306C9.2165 15.2041 9.20121 15.1022 9.18491 15.0003C9.16962 14.8984 9.15331 14.7964 9.13802 14.6935C9.12172 14.5916 9.11254 14.4886 9.10031 14.3857C9.08808 14.2828 9.07585 14.1798 9.06362 14.0769L9.04528 13.922L9.03305 13.766C9.02591 13.6794 9.01878 13.5928 9.01164 13.5051C9.1156 13.5041 9.21854 13.497 9.32148 13.4909L9.66494 13.4695L9.92178 13.4531L10.0074 13.445L10.3498 13.4073L10.6913 13.3696C10.8054 13.3573 10.9185 13.337 11.0327 13.3207L11.3731 13.2687C11.4862 13.2513 11.6004 13.2361 11.7125 13.2116L12.3882 13.0771C12.6124 13.0281 12.8356 12.9711 13.0588 12.9181C13.283 12.8692 13.5063 12.7998 13.7295 12.7356C14.185 12.6113 14.6019 12.4635 15.031 12.3239L15.6873 12.0742C15.9034 11.9957 16.1133 11.8999 16.3263 11.8102C16.7544 11.637 17.1672 11.429 17.583 11.2262L18.1955 10.9001C18.2995 10.8481 18.3983 10.788 18.4982 10.7299L18.7989 10.5546C18.8988 10.4955 18.9997 10.4384 19.0975 10.3762L19.389 10.1867L19.6815 9.99607L19.7549 9.94919L19.8272 9.89721L20.4061 9.48546C20.4561 9.4508 20.4958 9.41615 20.5417 9.3815L20.6314 9.3122C20.666 9.35398 20.6986 9.39577 20.7292 9.43654C20.8362 9.58024 20.9432 9.72191 21.0503 9.86357C21.1043 9.93288 21.1542 10.0073 21.2042 10.0807C21.2551 10.154 21.3061 10.2264 21.356 10.2988C21.406 10.3721 21.4569 10.4445 21.5069 10.5159C21.5578 10.5882 21.6027 10.6626 21.6495 10.736C21.7443 10.8817 21.8381 11.0275 21.9308 11.1712C22.0205 11.3169 22.1051 11.4647 22.1907 11.6094C22.3681 11.8968 22.5169 12.1924 22.6748 12.4757C22.6942 12.5114 22.7136 12.5471 22.7329 12.5828C22.7513 12.6184 22.7696 12.6541 22.787 12.6898C22.8236 12.7621 22.8593 12.8335 22.894 12.9048C22.9653 13.0475 23.0356 13.1882 23.1049 13.3268C23.1467 13.4195 23.1885 13.5112 23.2303 13.6019C23.1783 13.6193 23.1263 13.6356 23.0744 13.6529C22.4078 13.873 21.7076 14.1095 20.9861 14.3633C20.6242 14.4876 20.2584 14.6201 19.8884 14.7536C19.7029 14.8199 19.5174 14.8871 19.3299 14.9544C19.1434 15.0237 18.9558 15.093 18.7673 15.1623C18.0141 15.4406 17.2518 15.728 16.4914 16.0235C15.7322 16.3191 14.9739 16.6208 14.2309 16.9235C14.0454 16.9999 13.8599 17.0753 13.6765 17.1507C13.493 17.2272 13.3106 17.3046 13.1292 17.3801C12.7653 17.5319 12.4065 17.6807 12.056 17.8336C11.3792 18.1231 10.7269 18.4105 10.1073 18.6877C10.0899 18.6388 10.0736 18.5898 10.0563 18.5409ZM5.01542 12.8365L5.09899 12.5858C5.12753 12.5033 5.15403 12.4187 5.18766 12.3382C5.25289 12.1741 5.31812 12.011 5.38232 11.8479C5.45061 11.6869 5.52807 11.5289 5.60043 11.3699L5.65547 11.2497L5.68298 11.1906L5.83586 10.9001C5.91842 10.7452 5.99384 10.5882 6.08658 10.4404C6.17627 10.2906 6.26392 10.1398 6.35463 9.99097C6.45145 9.84625 6.54827 9.70152 6.6451 9.55782L6.71746 9.44979L6.79492 9.34583C6.84689 9.27652 6.89887 9.20722 6.95085 9.13893C7.00283 9.06963 7.05481 9.00032 7.10679 8.93204C7.13227 8.89637 7.1608 8.86477 7.18832 8.83216L7.27189 8.73228C7.32693 8.66603 7.38197 8.6008 7.43598 8.53456L7.51854 8.4357C7.54606 8.40308 7.57357 8.36945 7.60313 8.33887C7.72034 8.21351 7.83652 8.08815 7.95271 7.96381L8.03934 7.87107L8.13209 7.7824C8.19324 7.72329 8.25439 7.66519 8.31554 7.60608C8.32879 7.59385 8.34102 7.58264 8.35325 7.57041C8.32879 7.63462 8.30331 7.69781 8.27987 7.76201C7.95271 8.65584 7.76314 9.5782 7.66428 10.4955C7.61434 10.9541 7.58988 11.4127 7.58478 11.8693C7.58173 12.0976 7.5858 12.3229 7.5909 12.5522C7.59498 12.6674 7.60007 12.7825 7.60415 12.8977C7.60721 12.9436 7.61026 12.9894 7.6123 13.0353L7.60313 13.0363L7.27189 13.0536C7.16182 13.0587 7.05073 13.0587 6.93964 13.0618C6.71644 13.0699 6.49426 13.0628 6.27105 13.0608C6.15894 13.0618 6.04785 13.0526 5.93676 13.0485C5.82465 13.0424 5.71254 13.0404 5.60145 13.0292C5.39048 13.0169 5.18053 12.9955 4.97057 12.9701L5.01542 12.8365ZM9.60073 8.24715C9.74036 7.86699 9.90751 7.5011 10.1042 7.15866C10.3009 6.81723 10.5272 6.49721 10.7871 6.21795L10.8839 6.11399C10.9175 6.07934 10.9522 6.04775 10.9858 6.01513C11.0531 5.94787 11.1254 5.88773 11.1958 5.82658C11.2304 5.79499 11.2691 5.76747 11.3058 5.73893L11.4159 5.65332L11.5301 5.57382L11.5881 5.53408L11.6473 5.49739L11.7655 5.42502C11.8052 5.40158 11.846 5.3812 11.8868 5.3598C11.9673 5.31393 12.0519 5.27724 12.1354 5.23851L12.167 5.22424C12.1803 5.21813 12.165 5.22322 12.1742 5.22017L12.1925 5.21303L12.2598 5.18551L12.3301 5.15902L12.3454 5.1529L12.3841 5.13965L12.539 5.08767L12.5584 5.08156L12.5737 5.07646L12.6043 5.06933L12.7245 5.03671L12.7551 5.02754L12.7887 5.02041L12.9243 4.99187C12.9681 4.98066 13.015 4.97556 13.0598 4.96843L13.1964 4.94703C13.3809 4.92868 13.5654 4.91339 13.7529 4.91849C14.1259 4.92053 14.503 4.96741 14.874 5.05812C15.617 5.23749 16.3325 5.56669 16.9959 5.96723C17.6615 6.36879 18.273 6.84984 18.8376 7.36453C19.1189 7.62341 19.39 7.88839 19.6458 8.16357C19.6866 8.20638 19.7274 8.2502 19.7671 8.29403L19.706 8.34499C19.6631 8.37964 19.6193 8.41939 19.5765 8.44996L19.4491 8.54577L19.1953 8.73839L19.0679 8.8342L19.0037 8.88312L18.9365 8.92898L18.4004 9.29997C18.3566 9.33258 18.3097 9.3601 18.2638 9.38965L18.1262 9.4773L17.851 9.65362C17.7593 9.71274 17.6686 9.77287 17.5738 9.82688L17.0082 10.1571C16.8176 10.2641 16.6229 10.364 16.4303 10.468C16.2397 10.576 16.041 10.6687 15.8453 10.7656C15.6476 10.8614 15.4529 10.9633 15.2511 11.0479L14.6579 11.3118C14.2421 11.478 13.8202 11.6573 13.4145 11.7949L13.1077 11.906C13.0568 11.9244 13.0048 11.9427 12.9518 11.959L12.7949 12.009C12.5849 12.0762 12.376 12.1465 12.165 12.2097L11.528 12.3871C11.422 12.4187 11.315 12.4431 11.208 12.4686L10.8859 12.5471C10.7779 12.5716 10.6709 12.6011 10.5628 12.6225L10.2387 12.6867C10.0217 12.7295 9.80457 12.7764 9.58646 12.808L9.25829 12.861C9.1635 12.8763 9.06974 12.8916 8.97393 12.9028C8.97292 12.8763 8.9719 12.8508 8.97088 12.8243C8.96782 12.7224 8.96578 12.6205 8.96374 12.5186C8.9617 12.3127 8.96068 12.1017 8.9668 11.8938C8.97801 11.4769 9.00553 11.0611 9.05139 10.6473C9.14414 9.82281 9.3174 9.00746 9.60073 8.24715ZM28.6177 12.0181C28.4312 12.064 28.157 12.1323 27.8105 12.225C27.463 12.3178 27.0431 12.434 26.563 12.5716C26.084 12.7091 25.5449 12.8692 24.9588 13.0495C24.6653 13.1392 24.3616 13.2381 24.0467 13.337C24.0049 13.3502 23.9631 13.3635 23.9213 13.3767C23.8785 13.2626 23.8357 13.1474 23.7919 13.0312C23.7307 12.8824 23.6685 12.7316 23.6054 12.5797C23.5738 12.5043 23.5422 12.4278 23.5096 12.3504C23.4943 12.3127 23.478 12.2739 23.4617 12.2352C23.4443 12.1965 23.427 12.1588 23.4087 12.1211C23.267 11.8153 23.1284 11.5004 22.9643 11.1906C22.8828 11.0346 22.8043 10.8756 22.7197 10.7177C22.6331 10.5617 22.5444 10.4037 22.4557 10.2458C22.4099 10.1663 22.367 10.0847 22.3191 10.0063C22.2702 9.9288 22.2223 9.84931 22.1734 9.77083C22.1245 9.69133 22.0756 9.61286 22.0266 9.53336C21.9767 9.45386 21.9288 9.37335 21.8738 9.29487C21.7667 9.13588 21.6587 8.97586 21.5497 8.81483C21.513 8.75878 21.4753 8.7068 21.4376 8.65584L21.4855 8.61405L21.6159 8.49685L21.8758 8.25938C21.9614 8.17988 22.044 8.09631 22.1286 8.01477C22.2998 7.85272 22.4588 7.67946 22.6218 7.50926C22.6636 7.46645 22.7024 7.42263 22.7411 7.3788L22.8583 7.24529C22.9358 7.1556 23.0163 7.06897 23.0886 6.9752L23.3129 6.69799C23.3873 6.60626 23.4555 6.50842 23.5269 6.41261C23.6726 6.22508 23.801 6.02227 23.9366 5.82454C23.9488 5.80722 23.96 5.78887 23.9712 5.76951C24.1527 5.44133 24.0334 5.02754 23.7042 4.84613L23.7001 4.84409C23.4739 4.71975 23.2486 4.59337 23.0214 4.47107L22.6718 4.30392C22.5546 4.24888 22.4394 4.19079 22.3212 4.13983L21.9624 3.99205L21.7841 3.91867C21.7239 3.89523 21.6648 3.86873 21.6037 3.84834L21.2378 3.72095L21.0543 3.65776L20.9626 3.62514C20.9331 3.61597 20.9015 3.6068 20.8699 3.59864L20.4979 3.49061L20.3114 3.43761C20.2808 3.42844 20.2502 3.41927 20.2186 3.41111L20.1238 3.38971L19.7457 3.30512C19.6203 3.2776 19.495 3.246 19.3666 3.22664L18.9854 3.16345C18.858 3.14205 18.7306 3.11861 18.6022 3.1074L18.2169 3.06459L18.0253 3.04319C17.9611 3.03605 17.8959 3.03503 17.8317 3.02994L17.4454 3.00955L17.2518 3.0014C17.1875 2.99834 17.1233 3.0014 17.0581 3.00038L16.6718 3.00344L16.4782 3.00446C16.414 3.0065 16.3498 3.01159 16.2856 3.01567C15.7709 3.04115 15.2582 3.09211 14.7507 3.17874L14.182 3.2827C14.1188 3.29594 14.0566 3.31225 13.9944 3.32754L13.6194 3.41825L13.4329 3.46411C13.3707 3.4794 13.3075 3.5008 13.2453 3.51915L12.9151 3.62106L12.857 3.6282C12.7949 3.63737 12.7337 3.64451 12.6726 3.65776L12.4881 3.69445L12.4422 3.70362L12.3943 3.71585L12.2965 3.74133L12.1997 3.76681L12.1518 3.78006L12.1273 3.78617L12.1079 3.79229L11.953 3.84325L11.8949 3.86159C11.8756 3.86771 11.9102 3.85548 11.847 3.8779L11.7706 3.90644L11.685 3.94007L11.6656 3.9472C11.6615 3.94822 11.634 3.96045 11.635 3.95943L11.5922 3.9788C11.4771 4.02976 11.3609 4.07868 11.2498 4.13881C11.1937 4.16837 11.1366 4.19589 11.0826 4.22646L10.9196 4.32328C10.7881 4.40176 10.6607 4.48737 10.5384 4.57808C10.4793 4.6056 10.4212 4.63312 10.3631 4.66063C10.3223 4.68 10.2805 4.69936 10.2408 4.71873L10.1246 4.78294C9.96866 4.86855 9.81272 4.95416 9.65475 5.04079C9.57525 5.08258 9.49983 5.1315 9.42441 5.1794C9.34798 5.2273 9.27052 5.2752 9.19408 5.3231C9.11764 5.37203 9.0412 5.41993 8.96374 5.46783L8.90565 5.50452L8.85061 5.54427L8.7385 5.62376C7.53484 6.4544 6.43005 7.52353 5.53113 8.77407C4.63017 10.0226 3.93508 11.4545 3.50702 12.9568L3.4683 13.0913C3.45606 13.1372 3.44282 13.178 3.4316 13.2289L3.36128 13.5214L3.32561 13.6682L3.30828 13.7406L3.29401 13.8129L3.23796 14.1013C3.19617 14.2919 3.17069 14.4866 3.14012 14.6792C3.1075 14.8719 3.0912 15.0665 3.06776 15.2602C2.98622 16.0358 2.98112 16.8154 3.03718 17.5829C3.04228 17.6787 3.05349 17.7745 3.06368 17.8703C3.07285 17.9651 3.08304 18.0609 3.09323 18.1567C3.10139 18.2525 3.11668 18.3463 3.12993 18.441C3.14419 18.5358 3.15744 18.6296 3.17171 18.7244C3.18394 18.8192 3.20433 18.9119 3.22267 19.0057C3.24102 19.0984 3.25936 19.1922 3.27669 19.2849C3.29401 19.3777 3.31746 19.4694 3.33886 19.5611C3.36128 19.6539 3.38268 19.7456 3.40511 19.8363C3.5906 20.566 3.83316 21.2723 4.12975 21.9379C4.1644 22.0174 4.20007 22.0969 4.23472 22.1764C4.27141 22.2569 4.31524 22.3425 4.35499 22.425C4.39575 22.5076 4.43754 22.5901 4.47831 22.6727C4.49869 22.7135 4.51806 22.7552 4.53946 22.795L4.60469 22.9132C4.69234 23.0692 4.77591 23.2271 4.86662 23.379C4.96038 23.5298 5.05313 23.6786 5.14587 23.8274C5.53113 24.4135 5.95001 24.9587 6.3954 25.452C6.45145 25.5142 6.50751 25.5743 6.56356 25.6355C6.61962 25.6966 6.67465 25.7578 6.73376 25.8148C6.84995 25.93 6.96512 26.0452 7.07927 26.1593C7.31776 26.3774 7.54809 26.5945 7.79372 26.7892C8.27579 27.1836 8.765 27.5362 9.25931 27.8338C9.32046 27.8716 9.38161 27.9082 9.44174 27.946C9.50391 27.9806 9.56608 28.0153 9.62723 28.0499C9.75055 28.1182 9.87082 28.1875 9.9921 28.2527C9.99822 28.2558 10.0033 28.2578 10.0094 28.2609C10.1806 28.3557 10.3509 28.4494 10.5231 28.5422C10.7514 28.6512 10.9797 28.7633 11.211 28.8683L11.5627 29.013L11.739 29.0854C11.7981 29.1099 11.8562 29.1353 11.9163 29.1547L12.2761 29.2811L12.4555 29.3433L12.5462 29.3749C12.5757 29.385 12.6063 29.3932 12.6369 29.4024L13.0028 29.5074L13.1852 29.5603C13.2158 29.5695 13.2464 29.5787 13.2769 29.5868L13.3697 29.6072L13.7417 29.6918C13.866 29.7193 13.9883 29.752 14.1147 29.7703L14.4898 29.8335C14.6151 29.8549 14.7395 29.8783 14.8658 29.8895L15.244 29.9324L15.4335 29.9538C15.4967 29.9619 15.5599 29.9629 15.6231 29.967L16.0033 29.9884L16.1928 29.9986C16.257 30.0017 16.3202 29.9986 16.3834 29.9996L16.7636 29.9986H16.9542C17.0173 29.9966 17.0805 29.9915 17.1437 29.9884C17.6513 29.966 18.1558 29.9171 18.6552 29.8355L19.0292 29.7693L19.2167 29.7356C19.2789 29.7234 19.3401 29.7081 19.4012 29.6939L19.7712 29.6062L19.9546 29.5624C20.0168 29.5481 20.078 29.5267 20.1391 29.5094L20.5081 29.3993C20.6304 29.3616 20.7557 29.3259 20.8678 29.2821L21.2133 29.1547L21.3856 29.0915L21.4824 29.0559L21.567 29.0222L21.6577 28.9845L21.7433 28.9458L21.9155 28.8683L22.26 28.7124C22.3762 28.6635 22.4863 28.6023 22.5984 28.5432L22.9327 28.3679C22.9877 28.3373 23.0438 28.3108 23.0978 28.2772L23.2599 28.1804L23.5829 27.9857C23.6359 27.9521 23.691 27.9215 23.7429 27.8868L23.8989 27.7809L24.2097 27.5668C24.2607 27.5312 24.3137 27.4965 24.3636 27.4588L24.81 27.1133C24.859 27.0746 24.9089 27.0368 24.9578 26.9971L25.0985 26.8738L25.3818 26.6261C25.4287 26.5843 25.4766 26.5446 25.5224 26.5018L25.656 26.3703L25.923 26.1063C25.9668 26.0625 26.0127 26.0197 26.0555 25.9738L26.1819 25.8352L26.4336 25.559C26.4744 25.5121 26.5182 25.4673 26.5569 25.4184L26.6741 25.2726L26.9075 24.9811C26.988 24.8853 27.0584 24.7824 27.1307 24.6815L27.3478 24.3788C27.4222 24.2789 27.4854 24.1719 27.5527 24.0669L27.7514 23.753L27.8013 23.6746L27.8472 23.594L27.9379 23.432L28.1173 23.1069C28.1326 23.0793 28.1479 23.0529 28.1621 23.0253L28.2019 22.9407L28.2824 22.7746L28.4434 22.4403C28.4709 22.3853 28.4934 22.3272 28.5168 22.2711L28.5882 22.0999L28.7298 21.7585C28.8144 21.5271 28.8919 21.2927 28.9734 21.0614C29.0427 20.8259 29.1079 20.5895 29.1732 20.354L28.901 21.0359C28.7981 21.2581 28.7003 21.4813 28.5953 21.7004L28.4271 22.0245L28.3436 22.1865C28.316 22.2406 28.2895 22.2956 28.2579 22.3476L28.0724 22.6615L27.9349 22.8969C27.9186 22.9224 27.9012 22.9479 27.8849 22.9723L27.6831 23.2761L27.5843 23.4279C27.568 23.4534 27.5516 23.4789 27.5343 23.5033L27.4803 23.5767L27.2653 23.8692C27.1929 23.966 27.1256 24.0649 27.0461 24.1566L26.8158 24.4359C26.7383 24.5297 26.6639 24.6244 26.5804 24.7111L26.3358 24.9771L26.2135 25.1096C26.1727 25.1544 26.1278 25.1942 26.085 25.237L25.8282 25.4897L25.6988 25.6161C25.656 25.6579 25.6091 25.6956 25.5653 25.7353L25.2941 25.9728L25.1586 26.0921C25.1127 26.1308 25.0648 26.1665 25.0179 26.2032L24.7356 26.4264L24.594 26.5374C24.5461 26.5731 24.4961 26.6067 24.4472 26.6414L24.0069 26.9502C23.957 26.9828 23.905 27.0134 23.854 27.045L23.5493 27.2346L23.3974 27.3294C23.3465 27.3599 23.2925 27.3874 23.2415 27.416L22.9266 27.5882L22.7696 27.6738C22.7176 27.7034 22.6626 27.7258 22.6086 27.7523L22.2855 27.9052C22.1775 27.9562 22.0705 28.0102 21.9594 28.053L21.6281 28.1885L21.463 28.2558L21.3805 28.2904L21.2989 28.321L21.2123 28.3516L21.1359 28.3771L20.9606 28.4341L20.611 28.5493C20.4938 28.5911 20.3817 28.6166 20.2675 28.6472L19.9292 28.7379C19.8721 28.7521 19.817 28.7705 19.759 28.7817L19.5837 28.8184L19.2351 28.8907C19.1943 28.8989 19.1536 28.9081 19.1128 28.9162C18.7693 28.85 18.4004 28.744 18.0172 28.5931C17.5952 28.4291 17.157 28.2059 16.7126 27.9327C15.8249 27.3803 14.9168 26.6088 14.0586 25.6477C13.9537 25.5254 13.8446 25.4041 13.7396 25.2777C13.7142 25.2461 13.6877 25.2145 13.6601 25.1829L13.6204 25.135L13.5878 25.0933C13.5348 25.027 13.4828 24.9587 13.4298 24.8915C13.4206 24.8803 13.4115 24.869 13.4033 24.8578L13.5919 24.7029C13.6357 24.6693 13.6785 24.6295 13.7223 24.599L13.8528 24.5021L14.1127 24.3075L14.3083 24.1607L14.3756 24.1138L14.6477 23.9283L14.9209 23.7418C15.0116 23.6796 15.1064 23.6246 15.1991 23.5645L15.4784 23.3882C15.5711 23.3301 15.6639 23.2699 15.7597 23.2159L16.3335 22.8857C16.5261 22.7797 16.7238 22.6798 16.9185 22.5769C17.1121 22.4699 17.3129 22.3771 17.5127 22.2813C17.7124 22.1865 17.9091 22.0867 18.114 22.0021L18.7163 21.7412C19.1352 21.5791 19.5561 21.4048 19.9699 21.2693L20.2818 21.1612C20.3338 21.1429 20.3858 21.1256 20.4388 21.1103L20.5977 21.0614C20.8097 20.9972 21.0217 20.9278 21.2347 20.8667L21.8778 20.6965C21.9849 20.6669 22.0939 20.6435 22.2019 20.619L22.5271 20.5457C22.6351 20.5222 22.7431 20.4947 22.8522 20.4743L23.1804 20.4142C23.3995 20.3744 23.6176 20.3306 23.8377 20.3031L24.1679 20.2542C24.278 20.2389 24.3881 20.2216 24.4992 20.2124L25.1413 20.1482C25.1882 20.5518 25.2126 20.7678 25.2126 20.7678C25.2126 20.7678 25.2157 20.5508 25.2208 20.1421L25.498 20.1247L25.6672 20.1145L25.8333 20.1094L26.1666 20.0982C26.2777 20.0942 26.3888 20.0962 26.5009 20.0962C26.7241 20.0921 26.9473 20.1033 27.1705 20.1105C27.2826 20.1125 27.3937 20.1247 27.5058 20.1319C27.6169 20.141 27.729 20.1451 27.8401 20.1584C28.2875 20.1971 28.7298 20.2695 29.1732 20.354C28.9571 20.2909 28.7421 20.2195 28.5219 20.1706C28.4118 20.1441 28.3028 20.1135 28.1917 20.0921L27.8594 20.0238C27.7483 19.9994 27.6362 19.9861 27.5241 19.9678C27.412 19.9515 27.3009 19.9301 27.1878 19.9178C26.9626 19.8924 26.7373 19.8618 26.5111 19.8465C26.3979 19.8383 26.2848 19.8271 26.1717 19.821L25.8292 19.8057L25.658 19.7986H25.4898L25.2157 19.7966C25.2065 19.4123 25.181 18.9221 25.1209 18.3371C25.0302 17.5656 24.8824 16.6299 24.6144 15.5751C24.541 15.3111 24.4656 15.039 24.3881 14.7577C24.3382 14.6007 24.2872 14.4418 24.2342 14.2807C24.2862 14.2563 24.3371 14.2328 24.3881 14.2094C24.6877 14.0698 24.9772 13.9362 25.2544 13.8048C25.8078 13.5418 26.3133 13.2962 26.7608 13.074C27.2072 12.8518 27.5944 12.6541 27.9124 12.487C28.2304 12.3208 28.4791 12.1863 28.6473 12.0936C28.8165 11.9998 28.9061 11.9498 28.9061 11.9498C28.9061 11.9498 28.8063 11.9743 28.6177 12.0181Z" fill="#D20001"/>
</svg>
