<svg width="374" height="100" viewBox="0 0 374 100" fill="none" xmlns="http://www.w3.org/2000/svg">
<path d="M5 0.5H369C371.485 0.5 373.5 2.51472 373.5 5V95C373.5 97.4853 371.485 99.5 369 99.5H4.99999C2.51471 99.5 0.5 97.4853 0.5 95V5C0.5 2.51472 2.51472 0.5 5 0.5Z" fill="#D20001" stroke="#D20001"/>
<path d="M24.4278 22.395H24.5258L40.9898 50.57C41.4798 51.354 42.6068 53.118 42.8028 53.853C43.6848 55.568 43.8318 55.127 44.6158 54.343C45.8408 52.824 48.9278 50.619 50.8878 50.129C51.8678 49.933 51.9658 49.443 50.8878 49.247C49.4668 49.149 49.0258 48.414 48.0458 47.434V30.872C48.0458 21.758 50.1528 20.239 53.5338 20.239C53.9258 20.239 54.5138 20.239 54.5138 19.553C54.5138 18.965 53.9748 18.965 53.5828 18.965H41.2348C40.7448 18.965 40.0588 18.965 40.0588 19.651C40.0588 20.288 40.8428 20.239 41.3328 20.239C45.5958 20.239 46.7718 23.228 46.7718 30.872V46.356H46.6738L35.6488 27.246C35.1588 26.462 31.9738 21.121 31.9738 20.141C31.9738 19.308 31.9738 18.965 31.1898 18.965H18.0088C17.5678 18.965 16.6368 18.916 16.6368 19.553C16.6368 20.386 17.5678 20.239 18.2048 20.239C22.9088 20.239 23.1538 23.13 23.1538 27.148V41.75C23.1538 50.913 20.3118 52.726 18.3028 52.726C17.8128 52.726 16.5878 52.726 16.5878 53.461C16.5878 54 17.1758 54 17.5678 54H29.8668C30.2588 54 30.7488 53.951 30.7488 53.412C30.7488 52.726 29.4748 52.726 28.9848 52.726C25.2118 52.726 24.4278 49.786 24.4278 41.75V22.395ZM60.5726 45.817C60.5726 50.129 60.3766 52.726 55.6236 52.726C54.5946 52.726 53.9576 52.726 53.9576 53.412C53.9576 54 54.7906 54 55.1826 54H73.1656C80.4176 54 81.3486 54.931 81.7896 57.038C81.9856 58.018 82.4266 58.165 83.1616 56.499L88.7966 43.416C88.7966 42.828 87.8166 42.387 87.0326 44.494C84.4356 49.247 79.7316 52.726 74.1946 52.726C69.0496 52.726 67.7756 50.668 67.7756 45.817V35.821H73.0186C77.9676 35.821 78.8006 39.349 78.8006 41.015V42.828C78.8006 43.465 80.0746 44.445 80.0746 42.24V28.471C80.0746 26.266 78.8006 27.246 78.8006 27.883V29.304C78.8006 30.97 77.9676 34.547 73.0186 34.547H67.7756V26.266C67.7756 22.591 68.1676 20.239 72.5776 20.239C78.5066 20.239 83.7986 23.963 85.2196 26.952C86.1996 28.961 87.2286 28.618 86.4446 26.658L82.6716 17.25C82.1326 15.633 81.5446 16.515 81.4956 16.662C80.7116 17.887 80.1726 18.965 75.5176 18.965H55.1826C54.7906 18.965 53.9576 18.965 53.9576 19.553C53.9576 20.239 54.5946 20.239 55.6236 20.239C60.3766 20.239 60.5726 22.836 60.5726 27.148V45.817ZM103.247 36.948C105.648 37.046 107.608 37.046 108.98 37.046C115.154 37.046 124.219 36.311 124.219 28.128C124.219 23.424 120.348 18.965 110.156 18.965H90.6544C90.2624 18.965 89.4294 18.965 89.4294 19.553C89.4294 20.239 90.0664 20.239 91.0954 20.239C95.8484 20.239 96.0444 22.836 96.0444 27.148V45.817C96.0444 50.129 95.8484 52.726 91.0954 52.726C90.0664 52.726 89.4294 52.726 89.4294 53.412C89.4294 54 90.2624 54 90.6544 54H109.666C110.205 54 111.038 54 111.038 53.363C111.038 52.726 110.499 52.726 110.009 52.726H108.49C103.59 52.726 103.296 50.374 103.247 46.013V36.948ZM103.247 27.785C103.247 22.64 103.247 20.239 108.98 20.239C112.949 20.239 116.134 22.052 116.134 28.079C116.134 34.988 111.724 35.772 108.588 35.772C106.873 35.772 104.913 35.723 103.247 35.674V27.785ZM142.143 40.623L144.054 46.209C144.495 47.336 144.985 48.855 144.985 50.08C144.985 52.53 142.584 52.726 140.722 52.726C140.183 52.726 139.056 52.726 139.056 53.412C139.056 54 139.742 54 140.134 54H159.783C160.224 54 160.469 54 160.469 53.412C160.469 52.726 159.293 52.726 158.852 52.726C155.52 52.726 153.756 52.236 151.355 45.327L142.045 18.769C141.31 16.711 141.261 16.368 140.918 16.368C140.33 16.368 137.88 20.288 134.058 21.17C133.47 21.317 133.225 21.611 133.225 21.856C133.225 22.101 133.568 22.297 134.156 22.395C134.989 22.542 135.381 23.032 135.871 23.669L129.403 40.966C125.385 51.354 123.425 52.726 120.436 52.726C119.995 52.726 119.407 52.726 119.407 53.412C119.407 54 119.995 54 120.338 54H132.539C132.882 54 133.323 54 133.323 53.461C133.323 52.873 132.833 52.726 132.343 52.726C130.138 52.726 128.325 51.746 128.325 49.198C128.325 47.434 129.746 43.906 130.334 42.191L130.922 40.623H142.143ZM141.751 39.349H131.412L136.655 24.796H136.753L141.751 39.349ZM164.727 45.817C164.727 50.129 164.531 52.726 159.778 52.726C158.749 52.726 158.112 52.726 158.112 53.412C158.112 54 158.945 54 159.337 54H178.79C185.503 54 185.748 54.735 186.287 56.744C186.385 57.479 187.316 57.675 187.659 56.205L192.657 44.249C193.245 43.024 193.049 42.632 192.461 42.632C191.873 42.632 191.187 44.249 190.991 44.69C188.59 49.247 183.837 52.726 178.594 52.726C173.498 52.726 171.93 51.501 171.93 45.817V27.148C171.93 21.072 173.449 20.239 177.663 20.239H178.643C179.035 20.239 179.574 20.092 179.574 19.553C179.574 18.867 178.594 18.965 178.104 18.965H158.945C158.553 18.965 157.72 18.965 157.72 19.553C157.72 20.239 158.357 20.239 159.386 20.239C164.531 20.239 164.727 22.836 164.727 27.148V45.817ZM214.446 22.395H214.544L231.008 50.57C231.498 51.354 232.625 53.118 232.821 53.853C233.703 55.568 233.85 55.127 234.634 54.343C235.859 52.824 238.946 50.619 240.906 50.129C241.886 49.933 241.984 49.443 240.906 49.247C239.485 49.149 239.044 48.414 238.064 47.434V30.872C238.064 21.758 240.171 20.239 243.552 20.239C243.944 20.239 244.532 20.239 244.532 19.553C244.532 18.965 243.993 18.965 243.601 18.965H231.253C230.763 18.965 230.077 18.965 230.077 19.651C230.077 20.288 230.861 20.239 231.351 20.239C235.614 20.239 236.79 23.228 236.79 30.872V46.356H236.692L225.667 27.246C225.177 26.462 221.992 21.121 221.992 20.141C221.992 19.308 221.992 18.965 221.208 18.965H208.027C207.586 18.965 206.655 18.916 206.655 19.553C206.655 20.386 207.586 20.239 208.223 20.239C212.927 20.239 213.172 23.13 213.172 27.148V41.75C213.172 50.913 210.33 52.726 208.321 52.726C207.831 52.726 206.606 52.726 206.606 53.461C206.606 54 207.194 54 207.586 54H219.885C220.277 54 220.767 53.951 220.767 53.412C220.767 52.726 219.493 52.726 219.003 52.726C215.23 52.726 214.446 49.786 214.446 41.75V22.395ZM250.591 45.817C250.591 50.129 250.395 52.726 245.642 52.726C244.613 52.726 243.976 52.726 243.976 53.412C243.976 54 244.809 54 245.201 54H263.184C270.436 54 271.367 54.931 271.808 57.038C272.004 58.018 272.445 58.165 273.18 56.499L278.815 43.416C278.815 42.828 277.835 42.387 277.051 44.494C274.454 49.247 269.75 52.726 264.213 52.726C259.068 52.726 257.794 50.668 257.794 45.817V35.821H263.037C267.986 35.821 268.819 39.349 268.819 41.015V42.828C268.819 43.465 270.093 44.445 270.093 42.24V28.471C270.093 26.266 268.819 27.246 268.819 27.883V29.304C268.819 30.97 267.986 34.547 263.037 34.547H257.794V26.266C257.794 22.591 258.186 20.239 262.596 20.239C268.525 20.239 273.817 23.963 275.238 26.952C276.218 28.961 277.247 28.618 276.463 26.658L272.69 17.25C272.151 15.633 271.563 16.515 271.514 16.662C270.73 17.887 270.191 18.965 265.536 18.965H245.201C244.809 18.965 243.976 18.965 243.976 19.553C243.976 20.239 244.613 20.239 245.642 20.239C250.395 20.239 250.591 22.836 250.591 27.148V45.817ZM296.892 45.67H296.745L292.629 30.676C291.992 28.422 291.061 25.58 291.061 23.179C291.061 19.455 294.295 20.827 294.295 19.651C294.295 18.965 293.609 18.965 293.168 18.965H279.056C278.517 18.965 277.782 18.965 277.782 19.7C277.782 20.239 278.223 20.239 278.615 20.239C281.261 20.239 282.29 20.778 285.328 31.558L291.551 53.853C291.649 54.147 291.796 54.98 292.188 54.98C292.58 54.98 294.442 52.089 299.195 50.521C299.44 50.472 299.979 50.325 299.979 49.982C299.979 49.492 297.186 49.051 297.48 47.826L301.89 29.99H301.988L308.897 53.951C308.946 54.294 308.995 54.98 309.534 54.98C309.779 54.98 311.788 52.138 316.541 50.57C316.786 50.521 317.031 50.374 317.031 50.08C317.031 49.59 314.14 49.345 314.532 47.826L318.501 32.979C319.285 30.186 320.412 25.629 321.931 23.375C322.96 21.954 324.626 20.239 326.39 20.239C326.831 20.239 327.272 20.239 327.272 19.651C327.272 18.965 326.733 18.965 326.292 18.965H315.365C314.924 18.965 314.091 18.965 314.091 19.651C314.091 20.239 314.826 20.239 315.316 20.239C317.913 20.239 319.04 21.66 319.04 24.306C319.04 26.119 318.011 29.745 317.57 31.558L313.895 45.67H313.797L309.191 29.549C308.652 27.785 307.672 24.845 307.672 23.081C307.672 21.366 308.946 20.239 310.563 20.239C310.955 20.239 312.131 20.239 312.131 19.602C312.131 18.965 311.739 18.965 311.298 18.965H297.088C296.647 18.965 295.471 18.965 295.471 19.7C295.471 20.092 296.353 20.239 296.843 20.239C299.391 20.239 300.469 25.237 301.302 27.197L296.892 45.67ZM350.955 17.642C350.808 17.348 350.563 16.466 350.122 16.466C349.632 16.466 349.632 17.103 349.436 17.691C349.24 18.328 348.848 18.965 347.476 18.965C346.79 18.965 345.761 18.72 344.634 18.524C343.507 18.279 342.233 18.083 340.91 18.083C334.491 18.083 327.239 22.003 327.239 29.157C327.239 42.583 351.102 37.487 351.102 47.042C351.102 51.452 347.182 53.608 343.164 53.608C338.754 53.608 331.943 51.06 327.778 43.71C326.7 41.848 325.916 43.171 326.847 44.788L331.894 55.911C331.943 56.058 332.335 57.332 332.776 57.332C333.658 57.332 333.364 54.294 336.5 54.294C336.892 54.294 337.725 54.441 338.852 54.588C339.979 54.735 341.449 54.882 343.115 54.882C350.122 54.882 357.178 50.423 357.178 42.828C357.178 29.304 333.315 34.792 333.315 25.335C333.315 20.925 337.186 19.357 341.008 19.357C345.761 19.357 350.71 23.277 353.552 27.834C354.875 29.941 355.757 29.108 354.875 27.344L350.955 17.642Z" fill="white"/>
<path d="M231.104 86H225.289L223.78 81.5908H215.694L214.186 86H208.517L216.573 64.1885H223.048L231.104 86ZM222.418 77.5918L219.737 69.7695L217.057 77.5918H222.418ZM250.338 86H245.064V84.1836C244.088 84.9258 243.194 85.4922 242.384 85.8828C241.573 86.2637 240.606 86.4541 239.483 86.4541C237.667 86.4541 236.266 85.9316 235.279 84.8867C234.303 83.8418 233.814 82.2988 233.814 80.2578V69.5498H239.117V77.709C239.117 78.5391 239.142 79.2324 239.19 79.7891C239.249 80.3359 239.376 80.79 239.571 81.1514C239.757 81.5127 240.035 81.7764 240.406 81.9424C240.787 82.1084 241.314 82.1914 241.988 82.1914C242.438 82.1914 242.936 82.1084 243.482 81.9424C244.029 81.7764 244.557 81.5322 245.064 81.21V69.5498H250.338V86ZM269.63 80.7852C269.63 82.4844 268.868 83.8564 267.345 84.9014C265.821 85.9365 263.736 86.4541 261.09 86.4541C259.625 86.4541 258.297 86.3174 257.105 86.0439C255.914 85.7705 254.957 85.4678 254.234 85.1357V80.7998H254.718C254.981 80.9854 255.284 81.1904 255.626 81.415C255.978 81.6299 256.471 81.8643 257.105 82.1182C257.652 82.3428 258.272 82.5381 258.966 82.7041C259.659 82.8604 260.401 82.9385 261.192 82.9385C262.228 82.9385 262.994 82.8262 263.492 82.6016C263.99 82.3672 264.239 82.0254 264.239 81.5762C264.239 81.1758 264.093 80.8877 263.8 80.7119C263.507 80.5264 262.95 80.3506 262.13 80.1846C261.739 80.0967 261.207 80.0039 260.533 79.9062C259.869 79.7988 259.264 79.6719 258.717 79.5254C257.223 79.1348 256.114 78.5293 255.392 77.709C254.669 76.8789 254.308 75.8486 254.308 74.6182C254.308 73.0361 255.055 71.7227 256.549 70.6777C258.053 69.623 260.104 69.0957 262.701 69.0957C263.932 69.0957 265.108 69.2227 266.231 69.4766C267.364 69.7207 268.248 69.9844 268.883 70.2676V74.4277H268.429C267.647 73.8906 266.754 73.4561 265.748 73.124C264.752 72.7822 263.741 72.6113 262.716 72.6113C261.866 72.6113 261.148 72.7285 260.562 72.9629C259.986 73.1973 259.698 73.5293 259.698 73.959C259.698 74.3496 259.83 74.6475 260.094 74.8525C260.357 75.0576 260.978 75.2627 261.954 75.4678C262.491 75.5752 263.067 75.6826 263.683 75.79C264.308 75.8877 264.933 76.0146 265.558 76.1709C266.944 76.5322 267.97 77.1035 268.634 77.8848C269.298 78.6562 269.63 79.623 269.63 80.7852ZM283.663 85.8535C283.097 86 282.496 86.1123 281.861 86.1904C281.227 86.2783 280.45 86.3223 279.532 86.3223C277.481 86.3223 275.953 85.9072 274.947 85.0771C273.951 84.2471 273.453 82.8262 273.453 80.8145V73.124H271.285V69.5498H273.453V64.8477H278.727V69.5498H283.663V73.124H278.727V78.9541C278.727 79.5303 278.731 80.0332 278.741 80.4629C278.751 80.8926 278.829 81.2783 278.976 81.6201C279.112 81.9619 279.352 82.2354 279.693 82.4404C280.045 82.6357 280.553 82.7334 281.217 82.7334C281.49 82.7334 281.847 82.6748 282.286 82.5576C282.735 82.4404 283.048 82.333 283.224 82.2354H283.663V85.8535ZM298.751 74.5742H298.282C298.058 74.4961 297.696 74.4375 297.198 74.3984C296.7 74.3594 296.285 74.3398 295.953 74.3398C295.201 74.3398 294.537 74.3887 293.961 74.4863C293.385 74.584 292.765 74.75 292.101 74.9844V86H286.827V69.5498H292.101V71.9668C293.263 70.9707 294.273 70.3115 295.133 69.9893C295.992 69.6572 296.783 69.4912 297.506 69.4912C297.691 69.4912 297.901 69.4961 298.136 69.5059C298.37 69.5156 298.575 69.5303 298.751 69.5498V74.5742ZM311.7 81.708V78.2803C310.987 78.3389 310.216 78.4219 309.386 78.5293C308.556 78.627 307.926 78.7441 307.496 78.8809C306.969 79.0469 306.563 79.291 306.28 79.6133C306.007 79.9258 305.87 80.3408 305.87 80.8584C305.87 81.2002 305.899 81.4785 305.958 81.6934C306.017 81.9082 306.163 82.1133 306.397 82.3086C306.622 82.5039 306.891 82.6504 307.203 82.748C307.516 82.8359 308.004 82.8799 308.668 82.8799C309.195 82.8799 309.728 82.7725 310.265 82.5576C310.812 82.3428 311.29 82.0596 311.7 81.708ZM311.7 84.2568C311.417 84.4717 311.065 84.7305 310.646 85.0332C310.226 85.3359 309.83 85.5752 309.459 85.751C308.941 85.9854 308.404 86.1562 307.848 86.2637C307.291 86.3809 306.681 86.4395 306.017 86.4395C304.454 86.4395 303.146 85.9561 302.091 84.9893C301.036 84.0225 300.509 82.7871 300.509 81.2832C300.509 80.082 300.777 79.1006 301.314 78.3389C301.852 77.5771 302.613 76.9766 303.6 76.5371C304.576 76.0977 305.787 75.7852 307.232 75.5996C308.678 75.4141 310.177 75.2773 311.729 75.1895V75.1016C311.729 74.1934 311.358 73.5684 310.616 73.2266C309.874 72.875 308.78 72.6992 307.335 72.6992C306.466 72.6992 305.538 72.8555 304.552 73.168C303.565 73.4707 302.857 73.7051 302.428 73.8711H301.944V69.9014C302.501 69.7549 303.404 69.584 304.654 69.3887C305.914 69.1836 307.174 69.0811 308.434 69.0811C311.432 69.0811 313.595 69.5449 314.923 70.4727C316.261 71.3906 316.93 72.8359 316.93 74.8086V86H311.7V84.2568ZM327.052 86H321.778V63.207H327.052V86ZM337.306 86H332.032V69.5498H337.306V86ZM337.452 67.2061H331.886V63.207H337.452V67.2061ZM352.247 81.708V78.2803C351.534 78.3389 350.763 78.4219 349.933 78.5293C349.103 78.627 348.473 78.7441 348.043 78.8809C347.516 79.0469 347.11 79.291 346.827 79.6133C346.554 79.9258 346.417 80.3408 346.417 80.8584C346.417 81.2002 346.446 81.4785 346.505 81.6934C346.563 81.9082 346.71 82.1133 346.944 82.3086C347.169 82.5039 347.438 82.6504 347.75 82.748C348.062 82.8359 348.551 82.8799 349.215 82.8799C349.742 82.8799 350.274 82.7725 350.812 82.5576C351.358 82.3428 351.837 82.0596 352.247 81.708ZM352.247 84.2568C351.964 84.4717 351.612 84.7305 351.192 85.0332C350.772 85.3359 350.377 85.5752 350.006 85.751C349.488 85.9854 348.951 86.1562 348.395 86.2637C347.838 86.3809 347.228 86.4395 346.563 86.4395C345.001 86.4395 343.692 85.9561 342.638 84.9893C341.583 84.0225 341.056 82.7871 341.056 81.2832C341.056 80.082 341.324 79.1006 341.861 78.3389C342.398 77.5771 343.16 76.9766 344.146 76.5371C345.123 76.0977 346.334 75.7852 347.779 75.5996C349.225 75.4141 350.724 75.2773 352.276 75.1895V75.1016C352.276 74.1934 351.905 73.5684 351.163 73.2266C350.421 72.875 349.327 72.6992 347.882 72.6992C347.013 72.6992 346.085 72.8555 345.099 73.168C344.112 73.4707 343.404 73.7051 342.975 73.8711H342.491V69.9014C343.048 69.7549 343.951 69.584 345.201 69.3887C346.461 69.1836 347.721 69.0811 348.98 69.0811C351.979 69.0811 354.142 69.5449 355.47 70.4727C356.808 71.3906 357.477 72.8359 357.477 74.8086V86H352.247V84.2568Z" fill="#FFED4B"/>
<path d="M30.9913 71.883V72.324H29.1013V84.777H28.6393L26.2873 83.454V77.511L21.8143 78.036L22.1083 80.136C21.6883 80.192 21.3173 80.22 20.9953 80.22C20.6173 80.22 20.2043 80.136 19.7563 79.968C19.3223 79.786 18.9443 79.513 18.6223 79.149C18.3143 78.785 18.1603 78.344 18.1603 77.826C18.1603 76.86 18.4193 76.23 18.9373 75.936C19.4553 75.628 20.0713 75.474 20.7853 75.474C21.8773 75.474 23.4033 75.614 25.3633 75.894L26.2873 76.02V72.324H17.2783L16.2913 70.413V69.951H29.9413L30.9913 71.883ZM22.1652 63.231C23.1032 63.231 23.9362 63.609 24.6642 64.365C25.3782 65.121 26.1272 66.234 26.9112 67.704C27.7932 69.468 28.3742 70.658 28.6542 71.274H27.5412C27.4292 71.022 27.1982 70.644 26.8482 70.14C26.4842 69.622 26.1972 69.23 25.9872 68.964C25.1752 67.872 24.5102 67.06 23.9922 66.528L21.1572 67.494C20.5272 66.934 20.2122 66.199 20.2122 65.289C20.2122 64.645 20.4082 64.141 20.8002 63.777C21.1922 63.413 21.6472 63.231 22.1652 63.231ZM43.6029 71.883V72.324H41.7129V84.777H41.2509L38.9199 83.454V80.304L38.8779 80.283C38.6399 80.409 38.3319 80.528 37.9539 80.64C37.5899 80.752 37.2539 80.808 36.9459 80.808C36.6379 80.808 36.3089 80.689 35.9589 80.451C35.6089 80.199 35.3009 79.947 35.0349 79.695C34.7689 79.429 34.3279 78.967 33.7119 78.309C33.1519 77.693 32.7809 77.224 32.5989 76.902C32.4169 76.566 32.3259 76.139 32.3259 75.621V72.324H30.7929L29.8059 70.413V69.951H42.5739L43.6029 71.883ZM36.4419 78.414C36.8619 78.414 37.2889 78.337 37.7229 78.183C38.1569 78.015 38.5559 77.805 38.9199 77.553V72.324H35.1399V77.238C35.1399 77.63 35.2589 77.924 35.4969 78.12C35.7349 78.316 36.0499 78.414 36.4419 78.414ZM50.1877 71.883V72.324H48.3187V84.777H47.8357L45.5047 83.454V72.324H43.4257L42.4387 70.413V69.951H49.1587L50.1877 71.883ZM67.3128 72.324H65.4228V84.777H64.9608L62.6088 83.454V76.566C62.4968 76.524 62.3848 76.503 62.2728 76.503C61.7968 76.503 61.3348 76.713 60.8868 77.133C60.4388 77.553 60.0538 78.078 59.7318 78.708C59.4238 79.338 59.1998 79.947 59.0598 80.535L56.6448 79.086C56.7848 78.358 57.0648 77.658 57.4848 76.986C56.9528 76.692 56.3928 76.545 55.8048 76.545C55.1748 76.545 54.6428 76.769 54.2088 77.217C53.7888 77.651 53.5788 78.197 53.5788 78.855C53.5788 80.619 54.7688 82.46 57.1488 84.378L56.4978 85.071C54.9998 84.161 53.6978 83.125 52.5918 81.963C51.4998 80.787 50.9538 79.485 50.9538 78.057C50.9538 77.357 51.1148 76.72 51.4368 76.146C51.7588 75.572 52.1998 75.117 52.7598 74.781C53.3198 74.445 53.9358 74.27 54.6078 74.256C55.2518 74.256 55.8258 74.396 56.3298 74.676C56.8478 74.956 57.4498 75.432 58.1358 76.104C58.5558 75.628 59.0318 75.257 59.5638 74.991C60.1098 74.711 60.6838 74.571 61.2858 74.571C61.7058 74.571 62.1468 74.837 62.6088 75.369V72.324H50.0088L49.0218 70.413V69.951H66.2628L67.3128 71.883V72.324ZM80.7541 71.883V72.324H71.8291L70.8421 70.413V69.951H79.7041L80.7541 71.883ZM75.3361 75.474C76.2601 75.474 77.4921 75.579 79.0321 75.789C80.5721 75.985 81.7621 76.174 82.6021 76.356L81.8251 77.406L76.3651 78.036L76.6591 80.136C76.2391 80.192 75.8681 80.22 75.5461 80.22C75.1681 80.22 74.7551 80.136 74.3071 79.968C73.8731 79.786 73.4951 79.513 73.1731 79.149C72.8651 78.785 72.7111 78.344 72.7111 77.826C72.7111 76.86 72.9701 76.23 73.4881 75.936C74.0061 75.628 74.6221 75.474 75.3361 75.474ZM93.9885 72.324H92.0985V84.777H91.6365L89.3055 83.454V81.144L89.2635 81.123C88.9835 81.277 88.5845 81.424 88.0665 81.564C87.5625 81.704 87.0655 81.774 86.5755 81.774C85.2735 81.774 84.0835 81.347 83.0055 80.493C81.9415 79.639 81.1225 78.393 80.5485 76.755C81.6685 76.405 82.4805 76.041 82.9845 75.663C83.4885 75.285 83.7405 74.816 83.7405 74.256C83.7405 73.626 83.4745 72.982 82.9425 72.324H79.5195L78.5325 70.413V69.951H92.9595L93.9885 71.883V72.324ZM85.5045 79.569C86.7645 79.569 88.0315 79.135 89.3055 78.267V72.324H85.0635C85.9735 73.43 86.4285 74.319 86.4285 74.991C86.4285 75.481 86.1135 75.999 85.4835 76.545C84.8675 77.091 84.0975 77.525 83.1735 77.847C83.2855 78.379 83.5655 78.799 84.0135 79.107C84.4615 79.415 84.9585 79.569 85.5045 79.569ZM82.5359 84.714C83.7819 86.268 84.9299 87.451 85.9799 88.263C87.0159 89.075 88.1429 89.481 89.3609 89.481C90.0189 89.481 90.5649 89.334 90.9989 89.04C91.4189 88.746 91.6289 88.41 91.6289 88.032C91.6289 87.766 91.5309 87.542 91.3349 87.36C91.1389 87.178 90.8869 87.087 90.5789 87.087C90.2569 87.087 89.9559 87.129 89.6759 87.213C89.3959 87.297 89.0319 87.444 88.5839 87.654L87.3029 85.764C87.5549 85.638 87.8979 85.512 88.3319 85.386C88.7519 85.26 89.1089 85.197 89.4029 85.197C89.9909 85.197 90.6139 85.358 91.2719 85.68C91.9299 86.016 92.4829 86.45 92.9309 86.982C93.3649 87.514 93.5819 88.067 93.5819 88.641C93.5819 89.201 93.4349 89.712 93.1409 90.174C92.8329 90.636 92.4199 91 91.9019 91.266C91.3699 91.546 90.7819 91.686 90.1379 91.686C88.9759 91.686 87.8909 91.364 86.8829 90.72C85.8609 90.076 84.9649 89.306 84.1949 88.41C83.4109 87.514 82.6059 86.464 81.7799 85.26L82.5359 84.714ZM109.627 72.324H107.737V84.777H107.275L104.944 83.454V76.755H101.248C102.508 77.987 103.138 79.149 103.138 80.241C103.138 81.249 102.851 82.047 102.277 82.635C101.717 83.209 101.01 83.496 100.156 83.496C99.0919 83.496 98.1469 83.097 97.3209 82.299C96.5089 81.501 95.8369 80.472 95.3049 79.212C94.7869 77.952 94.4089 76.608 94.1709 75.18L95.1159 74.907C95.5499 76.671 96.1309 78.113 96.8589 79.233C97.5869 80.353 98.4899 80.913 99.5679 80.913C100.128 80.913 100.576 80.787 100.912 80.535C101.248 80.283 101.416 79.912 101.416 79.422C101.416 78.778 101.038 78.085 100.282 77.343C99.5399 76.601 98.6719 75.936 97.6779 75.348L98.1189 74.382H104.944V72.324H93.7929L92.8059 70.413V69.951H108.598L109.627 71.883V72.324ZM132.596 72.345H130.769V84.798H130.286L127.955 83.475V79.737H127.913C127.591 79.835 127.311 79.884 127.073 79.884C126.695 79.884 126.338 79.828 126.002 79.716C125.68 79.59 125.288 79.345 124.826 78.981H124.763C124.945 79.401 125.036 79.863 125.036 80.367C125.036 81.053 124.882 81.683 124.574 82.257C124.266 82.817 123.839 83.258 123.293 83.58C122.761 83.902 122.159 84.063 121.487 84.063C120.115 84.063 118.869 83.524 117.749 82.446C116.629 81.354 115.593 80.045 114.641 78.519L115.334 77.868C116.174 78.988 117.007 79.863 117.833 80.493C118.673 81.123 119.506 81.438 120.332 81.438C121.06 81.438 121.641 81.249 122.075 80.871C122.523 80.479 122.747 80.024 122.747 79.506C122.747 78.848 122.509 78.232 122.033 77.658C121.123 77.966 120.157 78.169 119.135 78.267L118.043 76.272L118.232 75.915C119.058 75.831 119.758 75.733 120.332 75.621C120.906 75.509 121.375 75.334 121.739 75.096C121.991 74.942 122.166 74.732 122.264 74.466C122.376 74.2 122.432 73.878 122.432 73.5C122.432 73.122 122.278 72.793 121.97 72.513C121.662 72.219 121.256 72.072 120.752 72.072C120.136 72.072 119.576 72.205 119.072 72.471C118.582 72.723 118.008 73.143 117.35 73.731L116.153 71.358C117.455 70.392 118.736 69.909 119.996 69.909C120.612 69.909 121.263 70.154 121.949 70.644C122.635 71.134 123.202 71.743 123.65 72.471C124.112 73.185 124.343 73.85 124.343 74.466C124.343 75.054 124.252 75.53 124.07 75.894C123.902 76.244 123.643 76.587 123.293 76.923C123.671 77.091 124.098 77.231 124.574 77.343C125.05 77.441 125.47 77.49 125.834 77.49C126.296 77.49 126.695 77.441 127.031 77.343C127.367 77.245 127.682 77.091 127.976 76.881V72.324H125.414L124.448 70.413V69.951H131.588L132.617 71.883L132.596 72.345ZM137.596 80.556C136.868 80.794 136.315 81.046 135.937 81.312C135.559 81.578 135.363 81.893 135.349 82.257C135.363 83.097 136.182 83.517 137.806 83.517C138.632 83.517 139.521 83.37 140.473 83.076C141.425 82.768 142.412 82.292 143.434 81.648L144.715 84.147C143.805 84.637 143.035 85.001 142.405 85.239C141.789 85.491 141.145 85.666 140.473 85.764L143.413 88.599L142.174 89.607L139.15 86.562L135.349 89.544L133.606 87.906L137.26 85.575C136.35 85.253 135.58 84.728 134.95 84C134.334 83.286 134.026 82.502 134.026 81.648C134.026 80.92 134.222 80.29 134.614 79.758C135.02 79.212 135.594 78.827 136.336 78.603L136.42 78.582C135.776 78.05 135.293 77.525 134.971 77.007C134.649 76.489 134.488 75.943 134.488 75.369V72.324H132.43L131.443 70.413V69.951H144.946L145.975 71.883V72.324H144.085V76.524C144.085 77.196 143.973 77.707 143.749 78.057C143.525 78.393 143.161 78.673 142.657 78.897C142.167 79.107 141.313 79.394 140.095 79.758C139.311 79.996 138.478 80.255 137.596 80.535V80.556ZM137.302 72.345L141.292 76.524V72.345H137.302ZM137.302 76.797C137.302 77.105 137.351 77.364 137.449 77.574C137.547 77.784 137.701 77.98 137.911 78.162C138.583 77.98 139.591 77.693 140.935 77.301L137.302 73.5V76.797ZM137.153 63.231C138.091 63.231 138.924 63.609 139.652 64.365C140.366 65.121 141.115 66.234 141.899 67.704C142.781 69.468 143.362 70.658 143.642 71.274H142.529C142.417 71.022 142.186 70.644 141.836 70.14C141.472 69.622 141.185 69.23 140.975 68.964C140.163 67.872 139.498 67.06 138.98 66.528L136.145 67.494C135.515 66.934 135.2 66.199 135.2 65.289C135.2 64.645 135.396 64.141 135.788 63.777C136.18 63.413 136.635 63.231 137.153 63.231ZM152.122 62.706C154.362 62.706 156.623 63.28 158.905 64.428C161.187 65.562 163.518 66.997 165.898 68.733L165.289 69.531C163.175 68.159 161.18 67.095 159.304 66.339C157.442 65.583 155.475 65.205 153.403 65.205C152.171 65.205 151.163 65.436 150.379 65.898C149.595 66.346 149.203 66.997 149.203 67.851C149.203 68.201 149.259 68.565 149.371 68.943C149.497 69.307 149.651 69.643 149.833 69.951H151.534L152.542 71.883V72.324H150.673V84.777H150.19L147.859 83.454V72.324H145.78L144.793 70.413V69.951H148.048C146.872 68.607 146.284 67.424 146.284 66.402C146.284 65.688 146.529 65.051 147.019 64.491C147.509 63.931 148.195 63.497 149.077 63.189C149.959 62.867 150.974 62.706 152.122 62.706ZM169.667 72.324H167.777V84.777H167.315L164.963 83.454V76.566C164.851 76.524 164.739 76.503 164.627 76.503C164.151 76.503 163.689 76.713 163.241 77.133C162.793 77.553 162.408 78.078 162.086 78.708C161.778 79.338 161.554 79.947 161.414 80.535L158.999 79.086C159.139 78.358 159.419 77.658 159.839 76.986C159.307 76.692 158.747 76.545 158.159 76.545C157.529 76.545 156.997 76.769 156.563 77.217C156.143 77.651 155.933 78.197 155.933 78.855C155.933 80.619 157.123 82.46 159.503 84.378L158.852 85.071C157.354 84.161 156.052 83.125 154.946 81.963C153.854 80.787 153.308 79.485 153.308 78.057C153.308 77.357 153.469 76.72 153.791 76.146C154.113 75.572 154.554 75.117 155.114 74.781C155.674 74.445 156.29 74.27 156.962 74.256C157.606 74.256 158.18 74.396 158.684 74.676C159.202 74.956 159.804 75.432 160.49 76.104C160.91 75.628 161.386 75.257 161.918 74.991C162.464 74.711 163.038 74.571 163.64 74.571C164.06 74.571 164.501 74.837 164.963 75.369V72.324H152.363L151.376 70.413V69.951H168.617L169.667 71.883V72.324ZM183.956 72.324H182.066V84.777H181.604L179.273 83.454V81.144L179.231 81.123C178.951 81.277 178.552 81.424 178.034 81.564C177.53 81.704 177.033 81.774 176.543 81.774C175.241 81.774 174.051 81.347 172.973 80.493C171.909 79.639 171.09 78.393 170.516 76.755C171.636 76.405 172.448 76.041 172.952 75.663C173.456 75.285 173.708 74.816 173.708 74.256C173.708 73.626 173.442 72.982 172.91 72.324H169.487L168.5 70.413V69.951H182.927L183.956 71.883V72.324ZM175.472 79.569C176.732 79.569 177.999 79.135 179.273 78.267V72.324H175.031C175.941 73.43 176.396 74.319 176.396 74.991C176.396 75.481 176.081 75.999 175.451 76.545C174.835 77.091 174.065 77.525 173.141 77.847C173.253 78.379 173.533 78.799 173.981 79.107C174.429 79.415 174.926 79.569 175.472 79.569ZM190.523 71.883V72.324H188.654V84.777H188.171L185.84 83.454V72.324H183.761L182.774 70.413V69.951H189.494L190.523 71.883Z" fill="#FFED4B"/>
</svg>
